# xmcd
#
# Track frame offsets: 
#        150
#        8305
#        23440
#        40495
#        58695
#        77127
#        99440
#        114390
#        131252
#        152350
#        173767
#        177430
#        201270
#        221912
#        229585
#        246652
#        276767
#
# Disc length: 4152 seconds
#
# Revision: 3
# Processed by: cddbd v1.5.1PL2 Copyright (c) Steve Scherf et al.
# Submitted via: ExactAudioCopy v0.90b4
#
DISCID=da103611
DTITLE=Jaheim - Still Ghetto
DYEAR=2002
DGENRE=R&B
TTITLE0=Intro (ft. Dunganz)
TTITLE1=Diamon In Da Ruff
TTITLE2=Fabulous (ft. Tha Rayne)
TTITLE3=Lets Talk About It
TTITLE4=Pu That Woman First
TTITLE5=Beauty And Thug (ft. Mary J. Blige)
TTITLE6=Me And My B*tch
TTITLE7=Backtight
TTITLE8=Special Day
TTITLE9=Long As I Live
TTITLE10=Interlude
TTITLE11=Everywhere I am
TTITLE12=Tight Jeans
TTITLE13=Whut You Want
TTITLE14=Every Which Way (ft. Duganz)
TTITLE15=Still Ghetto (ft. Taquane)
TTITLE16=Data Track
EXTD=
EXTT0=
EXTT1=
EXTT2=
EXTT3=
EXTT4=
EXTT5=
EXTT6=
EXTT7=
EXTT8=
EXTT9=
EXTT10=
EXTT11=
EXTT12=
EXTT13=
EXTT14=
EXTT15=
EXTT16=
PLAYORDER=
